<svg width="456.6" height="138.004" viewBox="0 0 456.6 138.004" xmlns="http://www.w3.org/2000/svg"><g id="svgGroup" stroke-linecap="round" fill-rule="evenodd" font-size="9pt"  fill="#053c2f" style="fill:#053c2f"><path d="M 325.6 131.001 L 338.8 131.001 L 338.8 134.001 L 294.6 134.001 L 294.6 131.001 L 307.8 131.001 L 307.8 45.001 L 293.6 45.001 L 293.6 42.001 L 297.8 42.001 A 164.79 164.79 0 0 0 311.865 41.43 Q 318.941 40.823 325.173 39.571 A 100.106 100.106 0 0 0 326 39.401 L 326 59.401 L 327.2 59.401 Q 330.6 49.801 338.4 43.901 Q 346.2 38.001 356.2 38.001 Q 377.49 38.001 383.256 55.125 A 36.305 36.305 0 0 1 384.4 59.401 L 385.6 59.401 Q 389 49.801 396.8 43.901 Q 404.6 38.001 414.6 38.001 Q 424.208 38.001 430.259 41.121 A 17.577 17.577 0 0 1 437.6 48.001 A 34.104 34.104 0 0 1 440.767 55.694 Q 443.028 63.558 443.348 75.105 A 141.006 141.006 0 0 1 443.4 79.001 L 443.4 131.001 L 456.6 131.001 L 456.6 134.001 L 412.4 134.001 L 412.4 131.001 L 425.6 131.001 L 425.6 74.401 A 122.27 122.27 0 0 0 425.295 65.398 Q 424.286 51.798 419.932 46.914 A 9.385 9.385 0 0 0 419 46.001 Q 415.881 43.662 411.053 43.602 A 20.551 20.551 0 0 0 410.8 43.601 Q 386.384 43.601 384.212 86.095 A 170.755 170.755 0 0 0 384 94.801 L 384 131.001 L 397.2 131.001 L 397.2 134.001 L 354 134.001 L 354 131.001 L 367.2 131.001 L 367.2 74.401 A 122.27 122.27 0 0 0 366.895 65.398 Q 365.886 51.798 361.532 46.914 A 9.385 9.385 0 0 0 360.6 46.001 Q 357.481 43.662 352.653 43.602 A 20.551 20.551 0 0 0 352.4 43.601 Q 327.984 43.601 325.812 86.095 A 170.755 170.755 0 0 0 325.6 94.801 L 325.6 131.001 Z M 187.4 86.001 L 187.4 121.401 Q 187.4 129.601 191 129.601 A 5.338 5.338 0 0 0 195.228 127.241 Q 198.461 123.133 200.14 111.871 A 121.063 121.063 0 0 0 200.8 106.601 L 204.4 107.001 Q 202.429 127.37 194.327 134.355 A 14.992 14.992 0 0 1 184.2 138.001 Q 179.2 138.001 176.5 134.401 Q 173.8 130.801 173.1 126.501 A 47.128 47.128 0 0 1 172.673 122.98 Q 172.511 121.093 172.445 118.915 A 102.994 102.994 0 0 1 172.4 115.801 L 171.2 115.801 A 30.904 30.904 0 0 1 167.576 124.684 A 26.05 26.05 0 0 1 160.6 132.201 Q 152.922 137.767 141.1 137.991 A 52.723 52.723 0 0 1 140.1 138.001 Q 127.6 138.001 118.2 131.301 A 21.571 21.571 0 0 1 108.996 115.52 A 30.624 30.624 0 0 1 108.8 112.001 A 26.947 26.947 0 0 1 109.761 104.639 A 21.15 21.15 0 0 1 114.2 96.401 Q 125.319 83.693 164.43 83.601 A 243.186 243.186 0 0 1 165 83.601 L 169.6 83.601 L 169.6 73.801 A 74.768 74.768 0 0 0 169.173 65.53 Q 168.148 56.352 164.667 50.724 A 21.595 21.595 0 0 0 164.2 50.001 A 16.921 16.921 0 0 0 155.16 43.372 Q 152.175 42.387 148.491 42.109 A 39.872 39.872 0 0 0 145.5 42.001 A 52.117 52.117 0 0 0 138.58 42.428 Q 130.746 43.481 126.322 47.128 A 15.614 15.614 0 0 0 126 47.401 Q 121.986 50.897 120.571 54.561 A 11.131 11.131 0 0 0 119.8 58.601 A 2.755 2.755 0 0 0 119.881 59.299 Q 120.115 60.192 121.033 60.361 A 2.578 2.578 0 0 0 121.5 60.401 Q 122.861 60.401 123.261 59.247 A 2.982 2.982 0 0 0 123.4 58.601 A 6.313 6.313 0 0 1 125.113 55.407 Q 127.03 53.543 130.813 53.411 A 16.843 16.843 0 0 1 131.4 53.401 A 10.076 10.076 0 0 1 134.62 53.893 A 8.313 8.313 0 0 1 138.4 56.501 A 11.061 11.061 0 0 1 140.93 62.662 A 14.473 14.473 0 0 1 141 64.101 A 9.99 9.99 0 0 1 137.953 71.456 A 12.272 12.272 0 0 1 137.7 71.701 Q 134.4 74.801 129.1 74.801 A 12.184 12.184 0 0 1 120.284 71.091 A 16.255 16.255 0 0 1 119.9 70.701 A 14.024 14.024 0 0 1 116.004 60.974 A 18.193 18.193 0 0 1 116 60.601 Q 116 50.057 124.331 44.388 A 24.233 24.233 0 0 1 125.4 43.701 Q 134.8 38.001 148.2 38.001 Q 172 38.001 179.7 48.701 Q 186.151 57.665 187.197 77.79 A 158.4 158.4 0 0 1 187.4 86.001 Z M 0 130.801 L 14.6 130.801 L 14.6 7.201 L 35.4 7.201 L 35.4 66.601 L 44 66.601 Q 58.4 66.601 63.8 61.101 A 14.929 14.929 0 0 0 66.874 56.244 Q 68.769 51.631 69.12 44.415 A 70.355 70.355 0 0 0 69.2 41.001 L 72.6 41.001 L 72.6 96.001 L 69.2 96.001 Q 69.2 81.201 63.8 75.501 A 14.736 14.736 0 0 0 58.756 72.14 Q 54.1 70.171 46.826 69.859 A 66.094 66.094 0 0 0 44 69.801 L 35.4 69.801 L 35.4 130.801 L 52 130.801 L 52 134.001 L 0 134.001 L 0 130.801 Z M 244.4 93.801 L 244.4 131.001 L 259 131.001 L 259 134.001 L 213.4 134.001 L 213.4 131.001 L 226.6 131.001 L 226.6 45.001 L 212.4 45.001 L 212.4 42.001 L 216.6 42.001 Q 230.913 42.001 242.184 39.92 A 97.151 97.151 0 0 0 244.8 39.401 L 244.8 60.201 L 246 60.201 Q 250.421 48.515 257.17 42.981 A 21.482 21.482 0 0 1 271.2 38.001 Q 278.6 38.001 283.3 42.701 A 15.726 15.726 0 0 1 287.999 54.086 A 20.107 20.107 0 0 1 288 54.301 A 19.77 19.77 0 0 1 287.474 58.99 A 13.667 13.667 0 0 1 284.1 65.301 A 13.615 13.615 0 0 1 280.278 68.175 A 11.966 11.966 0 0 1 274.9 69.401 A 14.782 14.782 0 0 1 271.065 68.928 A 11 11 0 0 1 266.3 66.301 A 10.23 10.23 0 0 1 263.566 62.187 A 10.521 10.521 0 0 1 263 58.701 A 12.911 12.911 0 0 1 263.552 54.85 A 10.74 10.74 0 0 1 265.6 51.101 A 8.496 8.496 0 0 1 271.791 48.028 A 11.808 11.808 0 0 1 272.6 48.001 A 13.319 13.319 0 0 1 275.48 48.286 Q 279.601 49.202 280.564 53.05 A 8.465 8.465 0 0 1 280.6 53.201 A 3.259 3.259 0 0 0 280.864 53.967 Q 281.312 54.851 282.264 54.979 A 2.526 2.526 0 0 0 282.6 55.001 Q 284.152 55.001 284.199 53.308 A 3.87 3.87 0 0 0 284.2 53.201 Q 284.2 48.001 280.4 44.601 Q 276.691 41.282 270.505 41.203 A 23.745 23.745 0 0 0 270.2 41.201 A 16.044 16.044 0 0 0 261.285 43.951 A 22.437 22.437 0 0 0 258.3 46.301 Q 252.8 51.401 249.8 59.601 A 101.673 101.673 0 0 0 244.658 85.875 A 119.885 119.885 0 0 0 244.4 93.801 Z M 2 5.801 L 2.6 2.201 A 77.703 77.703 0 0 0 19.051 6.381 A 67.061 67.061 0 0 0 28.1 7.001 A 98.384 98.384 0 0 0 47.253 5.052 A 115.84 115.84 0 0 0 54 3.501 A 131.018 131.018 0 0 1 63.422 1.385 Q 70.963 0.001 77 0.001 A 28.763 28.763 0 0 1 83.396 0.672 Q 88.648 1.87 92.3 5.201 A 17.547 17.547 0 0 1 96.553 10.926 A 16.704 16.704 0 0 1 98 17.901 A 21.193 21.193 0 0 1 97.445 22.891 A 14.578 14.578 0 0 1 93.7 29.801 A 15.453 15.453 0 0 1 89.841 32.73 A 12.808 12.808 0 0 1 83.8 34.201 A 15.361 15.361 0 0 1 78.339 33.255 A 13.957 13.957 0 0 1 74.2 30.801 A 11.136 11.136 0 0 1 70.23 22.663 A 15.439 15.439 0 0 1 70.2 21.701 A 17.398 17.398 0 0 1 70.523 18.24 Q 70.947 16.154 71.926 14.549 A 9.421 9.421 0 0 1 73.2 12.901 Q 75.802 10.212 80.585 9.855 A 20.372 20.372 0 0 1 82.1 9.801 A 8.486 8.486 0 0 1 85.552 10.468 Q 88.656 11.835 90 16.001 A 2.967 2.967 0 0 0 90.43 16.792 Q 91.013 17.538 92.025 17.596 A 3.04 3.04 0 0 0 92.2 17.601 Q 93.752 17.601 93.799 15.908 A 3.87 3.87 0 0 0 93.8 15.801 A 9.033 9.033 0 0 0 92.376 11.009 Q 91.554 9.672 90.258 8.387 A 19.553 19.553 0 0 0 89.3 7.501 Q 85.503 4.21 79.072 3.696 A 31.034 31.034 0 0 0 76.6 3.601 A 52.54 52.54 0 0 0 70.918 3.943 Q 65.021 4.589 57.134 6.457 A 192.253 192.253 0 0 0 54.5 7.101 A 115.592 115.592 0 0 1 36.273 10.224 A 99.094 99.094 0 0 1 27.7 10.601 A 72.466 72.466 0 0 1 2.9 6.132 A 82.019 82.019 0 0 1 2 5.801 Z M 169.6 100.601 L 169.6 87.201 L 163.3 87.201 Q 159 87.201 153.1 87.801 A 44.119 44.119 0 0 0 144.846 89.477 A 52.811 52.811 0 0 0 141 90.801 A 18.851 18.851 0 0 0 132.953 96.104 Q 129.945 99.564 128.841 104.691 A 30.929 30.929 0 0 0 128.2 111.201 Q 128.2 120.801 132.8 126.601 Q 136.832 131.684 145.165 132.312 A 32.415 32.415 0 0 0 147.6 132.401 A 17.684 17.684 0 0 0 161.493 126.151 A 24.556 24.556 0 0 0 163.7 123.201 A 36.291 36.291 0 0 0 168.663 110.612 A 50.906 50.906 0 0 0 169.6 100.601 Z" vector-effect="non-scaling-stroke"/></g></svg>