<svg id="Layer_1" data-name="Layer 1" xmlns="http://www.w3.org/2000/svg" viewBox="0 0 134.76 144.85"><defs><style>.cls-1{fill:#053c2f;}.cls-2{fill:#6cc5a3;}</style></defs><path class="cls-1" d="M118,65.79c2.7,6.59,2.5,13.25.54,20.32A69.23,69.23,0,0,0,86.16,62.93a20.06,20.06,0,0,0,4.4,3.85,78.39,78.39,0,0,1,16.87,16.61,35.39,35.39,0,0,1,6.31,13.22c.29,1.23.23,1.85-1.37,2-9.66,1.22-17.77-2.06-25-8.22C78.56,82.9,74.7,73,73.81,61.71a76.4,76.4,0,0,1-.24-9.56c.21-4.16.24-8.36,1.36-12.43.41-.82,1-.42,1.57-.25,1,.3,1.86.77,2.83,1a77.14,77.14,0,0,1,21.45,9,78.06,78.06,0,0,1,7.7,5.36,36.64,36.64,0,0,1,8.15,8.89C117.08,64.42,117.07,65.42,118,65.79Z" transform="translate(-62.61 -3.74)"/><path class="cls-1" d="M170.71,44.47a76.56,76.56,0,0,1,.65,24.07c-1.14,8.37-4.23,16-10.42,22a64.75,64.75,0,0,1-5,4.54,31.8,31.8,0,0,1-21.44,6.76c-.95,0-1.22-.21-1-1.27,1.59-7.06,5.17-13,9.88-18.38,3.46-4,7.08-7.74,10.74-11.49.47-.49,1-1.07.46-1.73s-1.15-.26-1.68.07c-2.42,1.5-5.11,2.72-7.18,4.61-5.43,5-11.07,9.75-15.05,16.09a3.76,3.76,0,0,1-1.22,1.43,27.51,27.51,0,0,1-1.12-20.46c1.22-1.9,2.54-3.71,3.85-5.54a41.21,41.21,0,0,1,6.62-6.77,31.84,31.84,0,0,1,7.62-5.4c4.85-2.21,9.6-4.64,14.75-6.1C164.36,46,167.38,44.62,170.71,44.47Z" transform="translate(-62.61 -3.74)"/><path class="cls-1" d="M122.77,85a62.81,62.81,0,0,1,2.48,12.36c.42,4.64.39,9.29.39,13.94,0,1.2-.43,1.51-1.55,1.55-4.45.16-4.42.19-4.46-4.24-.07-6.78.14-13.53,2-20.12C121.92,87.39,122.31,86.36,122.77,85Z" transform="translate(-62.61 -3.74)"/><path class="cls-2" d="M118,65.79c-.92-.37-.91-1.37-1.36-2.06a36.64,36.64,0,0,0-8.15-8.89,78.06,78.06,0,0,0-7.7-5.36,77.14,77.14,0,0,0-21.45-9c-1-.24-1.87-.71-2.83-1-.53-.17-1.16-.57-1.57.25.12-.94.23-1.87.36-2.92,11,3,21.56,6.6,30.76,13.41A33.79,33.79,0,0,1,118,65.79Z" transform="translate(-62.61 -3.74)"/><path class="cls-2" d="M170.71,44.47c-3.33.15-6.35,1.53-9.49,2.42-5.15,1.46-9.9,3.89-14.75,6.1a31.84,31.84,0,0,0-7.62,5.4,41.21,41.21,0,0,0-6.62,6.77c-1.31,1.83-2.63,3.64-3.85,5.54,1.23-4.81,4.1-8.58,7.49-12.05,6.7-6.88,15.09-10.78,24-13.75,2.74-.91,5.55-1.61,8.34-2.37C170.57,41.88,170.58,41.9,170.71,44.47Z" transform="translate(-62.61 -3.74)"/><path class="cls-1" d="M76.09,131.5a1.43,1.43,0,0,1-1.18.55,1,1,0,0,1,1-.72Z" transform="translate(-62.61 -3.74)"/><path class="cls-1" d="M90.48,13.52a67.9,67.9,0,0,1,40.15-9.6,71.79,71.79,0,0,1,20.65,4.7,72.29,72.29,0,0,1,18.48,10.63,73.25,73.25,0,0,1,24.78,77.57,72.48,72.48,0,0,1-23.44,35.66,71.33,71.33,0,0,1-39.39,15.9,76.57,76.57,0,0,1-10.71.05,75.11,75.11,0,0,1-10.56-1.56,79.72,79.72,0,0,1-10.17-3.14,74.18,74.18,0,0,1-9.56-4.57,69.57,69.57,0,0,1-28.1-30.27,72.76,72.76,0,0,0,29.65,27.39,69.34,69.34,0,0,0,39,6.93,70.1,70.1,0,0,0,19.12-5.14,73.76,73.76,0,0,0,8.76-4.6,70.15,70.15,0,0,0,8-5.83A66.57,66.57,0,0,0,188.15,95a68.07,68.07,0,0,0-.25-38.93,72.73,72.73,0,0,0-3.52-9.25,75.5,75.5,0,0,0-4.82-8.66,71.7,71.7,0,0,0-13.09-14.89A70,70,0,0,0,130.3,7.15,70.74,70.74,0,0,0,90.48,13.52Z" transform="translate(-62.61 -3.74)"/></svg>