<svg id="Layer_1" data-name="Layer 1" xmlns="http://www.w3.org/2000/svg" viewBox="0 0 250 51.7"><defs><style>.cls-1{fill:#053c2f;}.cls-2{fill:#99c499;}</style></defs><path class="cls-1" d="M169,81.61a11.76,11.76,0,0,0-4.89-3.28,69.36,69.36,0,0,0-7.37-2,33.89,33.89,0,0,1-6.79-2,3.34,3.34,0,0,1-2.17-3.21,3.87,3.87,0,0,1,1.93-3.35,10.85,10.85,0,0,1,5.86-1.27,19.94,19.94,0,0,1,11.1,3l2.95-6.76a20.06,20.06,0,0,0-6.27-2.51,32.28,32.28,0,0,0-7.51-.87,23.88,23.88,0,0,0-8.89,1.52,13.06,13.06,0,0,0-5.82,4.28,8,8,0,0,0-.69,1.06V60.74h-8.75V83.55a9.85,9.85,0,0,1-2.63,7.3,9.65,9.65,0,0,1-7.16,2.62A8.37,8.37,0,0,1,115.44,91q-2.31-2.47-2.31-7.1V60.74h-8.68v23.5q0,7.79,4.09,12.2t11.34,4.41q8.07,0,12.2-4.76v4.07h21l-.2,0c.43,0,.87,0,1.31,0q7.86,0,12.37-3.34a10.63,10.63,0,0,0,4.52-9A8.85,8.85,0,0,0,169,81.61Zm-8.3-.28a1.15,1.15,0,0,1,.22-.82l.1-.07a.76.76,0,0,1,.2-.06h0a.82.82,0,0,1,.57.25.47.47,0,0,1,.1.1,1.32,1.32,0,0,1,.19.29,3.92,3.92,0,0,1,.32,1.9c0,1.28,0,2.57,0,3.85,0,1.07,0,2.13,0,3.2a1.05,1.05,0,0,1-.13.61h0c-.19.25-.44.19-.68,0a2.71,2.71,0,0,1-.73-1,4.8,4.8,0,0,1-.14-1.42c0-1.67,0-3.34,0-5ZM158,80.72a2.32,2.32,0,0,1,.06-.64.09.09,0,0,1,0,0h0a.77.77,0,0,1,.46-.47h.08a.62.62,0,0,1,.47.12.75.75,0,0,1,.16.15,1.37,1.37,0,0,1,.2.29,4.41,4.41,0,0,1,.31,2c0,2,0,4-.05,6a1.48,1.48,0,0,1,0,.21.79.79,0,0,1-.08.31l0,0c-.2.3-.57.13-.8,0a1.68,1.68,0,0,1-.21-.18,1.75,1.75,0,0,1-.43-.73,4.78,4.78,0,0,1-.15-1.46Zm-2.71,3.38,0-2.2a0,0,0,0,0,0,0h0a0,0,0,0,0,0,0h0v0a0,0,0,0,0,0,0h0c0-.5,0-1,0-1.51v-.19a1.56,1.56,0,0,1,.13-.68.78.78,0,0,1,.74-.38h0a.86.86,0,0,1,.66.46,2,2,0,0,1,.17,1V81l0,5.44a1.62,1.62,0,0,1,0,.21c0,.14-.07.27-.21.3s-.35-.1-.46-.15l-.05,0h0a1.71,1.71,0,0,1-.84-1A4.83,4.83,0,0,1,155.32,84.1Zm-2.54-5a.6.6,0,0,1,.47-.22h.19a2,2,0,0,1,.55,0,.59.59,0,0,1,.46.57.86.86,0,0,1,0,.16v.22c0,.89,0,1.79,0,2.67,0,.36,0,.72,0,1.07s0,.66,0,1,0,.48-.29.51c-.5,0-1-.51-1.15-.91a2.67,2.67,0,0,1-.09-.26,5.08,5.08,0,0,1-.15-1.41c0-1,0-2,0-3A.78.78,0,0,1,152.78,79.07Zm-2.71,0s0,0,0,0h0a.43.43,0,0,1,.24-.21,1.32,1.32,0,0,1,1.29.05c.3.3.24,1,.2,1.39-.07.79-.07,1.56-.08,2.34a.9.9,0,0,1-.06.37.32.32,0,0,1-.21.2.45.45,0,0,1-.34,0,2.26,2.26,0,0,1-1-1.74,8.8,8.8,0,0,1-.11-1.26A2.55,2.55,0,0,1,150.07,79.11ZM148.48,79a2.73,2.73,0,0,1,.4,0c.23,0,.21.21.22.38v0c0,.21,0,.43,0,.64a7.13,7.13,0,0,1,0,.92c0,.09,0,.22,0,.34s-.11.41-.39.2l-.66-.47c-.56-.42-1.12-.81-1.68-1.21l-.4-.28s0-.17,0-.26S148.28,79,148.48,79Zm-8.06,18.2a2.89,2.89,0,0,1-1.31-3.86l.23-.49,1.08-2.25v2.21a6.41,6.41,0,0,0,2.32,4.94Zm23.63-3.07a10.06,10.06,0,0,1-3.33,1.76h0a10,10,0,0,1-2.67.45A7.64,7.64,0,0,1,153,94.49a13.45,13.45,0,0,1-1.14-1,15.83,15.83,0,0,1-1.64-1.92,18.21,18.21,0,0,1-1.4-2.27,27.23,27.23,0,0,1-2-4.93c-.15-.5-.3-1-.43-1.53a.14.14,0,0,1,0-.07,9.69,9.69,0,0,1-.38-1.3,7.62,7.62,0,0,1-.17-.88l-.21-.89.4.27c.69.49,1.39,1,2.08,1.44l1.19.83,2.29,1.57,1.21.84,2.36,1.63,1.3.89,2.15,1.49,1.79,1.24,1,.72.47.32,2,1.38c.34.23.72.53.71.94A1.2,1.2,0,0,1,164.05,94.09Zm2-4c-.06.37-.13.74-.21,1.1,0,.11-.06.23-.08.34s0,0,0,0a1.65,1.65,0,0,1-.38.7.75.75,0,0,1-.32.21,1.14,1.14,0,0,1-.25.06.84.84,0,0,1-.58-.24,1.85,1.85,0,0,1-.54-.64,2.53,2.53,0,0,1-.26-.64c0-.12,0-.24-.07-.37a9.07,9.07,0,0,1-.06-1.28c0-2.51,0-5,.06-7.54.14.09.28.18.41.28a5.78,5.78,0,0,1,.6.51,6.72,6.72,0,0,1,1.73,3.44A11.26,11.26,0,0,1,166,90.13Z" transform="translate(0 -49.15)"/><path class="cls-1" d="M154.45,79.45a.86.86,0,0,1,0,.16v.22l-.12,0c-.06,0-.06-.19-.09-.29A.79.79,0,0,0,154.45,79.45Z" transform="translate(0 -49.15)"/><path class="cls-1" d="M157.11,80.44V81l-1.73-.79v-.19a1.56,1.56,0,0,1,.13-.68.78.78,0,0,1,.74-.38h0a.86.86,0,0,1,.66.46A2,2,0,0,1,157.11,80.44Z" transform="translate(0 -49.15)"/><path class="cls-1" d="M158,81.42v-.7a2.32,2.32,0,0,1,.06-.64c0,.19.06.39.08.59S158.3,81.41,158,81.42Z" transform="translate(0 -49.15)"/><path class="cls-1" d="M93,51.91V71.83h-25V51.91h-9v48.24h9V79.48H93v20.67h9V51.91Z" transform="translate(0 -49.15)"/><path class="cls-1" d="M148,80.94c-.56-.42-1.12-.81-1.68-1.21a1.31,1.31,0,0,1,1.18-.07C147.87,79.88,148,80.5,148,80.94Z" transform="translate(0 -49.15)"/><path class="cls-1" d="M148.49,84.22a.44.44,0,0,1-.57.31c-.78-.17-1.28-1-1.53-1.71a.14.14,0,0,1,0-.07,9.69,9.69,0,0,1-.38-1.3,7.62,7.62,0,0,1-.17-.88,1.14,1.14,0,0,1,0-.37A.47.47,0,0,1,146,80c.69.49,1.39,1,2.08,1.44.09.82.24,1.61.39,2.41A1,1,0,0,1,148.49,84.22Z" transform="translate(0 -49.15)"/><path class="cls-1" d="M149.14,80a7.13,7.13,0,0,1,0,.92c0,.09,0,.22,0,.34-.07-.39-.15-.77-.23-1.15a.94.94,0,0,1,0-.5.55.55,0,0,1,.25-.25C149.12,79.52,149.13,79.74,149.14,80Z" transform="translate(0 -49.15)"/><path class="cls-1" d="M151.47,83.23a.45.45,0,0,1-.34,0,2.26,2.26,0,0,1-1-1.74,8.8,8.8,0,0,1-.11-1.26,2.55,2.55,0,0,1,.08-1.1s0,0,0,0h.08a.72.72,0,0,1,.53.28,1.11,1.11,0,0,1,.15.43Z" transform="translate(0 -49.15)"/><path class="cls-1" d="M151.63,86c-.55.16-1.19-.35-1.48-.76l-.16-.26a6,6,0,0,1-.47-1.54l-.24-1.18,2.29,1.57c0,.15.05.29.08.44.06.37.13.74.19,1.11S152,85.87,151.63,86Z" transform="translate(0 -49.15)"/><path class="cls-1" d="M154.42,82.5c0,.36,0,.72,0,1.07s0,.66,0,1,0,.48-.29.51c-.5,0-1-.51-1.15-.91a2.67,2.67,0,0,1-.09-.26,5.08,5.08,0,0,1-.15-1.41c0-1,0-2,0-3a.78.78,0,0,1,.09-.43.6.6,0,0,1,.47-.22.81.81,0,0,1,.33.25,2.27,2.27,0,0,1,.39,1Z" transform="translate(0 -49.15)"/><path class="cls-1" d="M155.29,87.12c0,.16,0,.32-.16.38a1.05,1.05,0,0,1-.55-.07,2,2,0,0,1-1.21-.92,5.44,5.44,0,0,1-.59-1.88l2.36,1.63.12.62A.93.93,0,0,1,155.29,87.12Z" transform="translate(0 -49.15)"/><path class="cls-1" d="M157.11,80.51V81l0,5.44a1.62,1.62,0,0,1,0,.21c0,.14-.07.27-.21.3s-.35-.1-.46-.15l-.05,0h0c0-.13,0-.25-.08-.38l-.46-2.3c-.07-.38-.15-.75-.23-1.13s-.15-.75-.22-1.13h0a0,0,0,0,0,0,0s0,0,0,0h0s0,0,0,0v0a0,0,0,0,0,0,0h0c0-.5,0-1,0-1.51v-.19a1.56,1.56,0,0,1,.13-.68.78.78,0,0,1,.74-.38h0a3.19,3.19,0,0,1,.26.26A3.43,3.43,0,0,1,157.11,80.51Z" transform="translate(0 -49.15)"/><path class="cls-1" d="M158.59,88.64a.28.28,0,0,1,0,.09s0,0,0,0c-.16.38-.62.27-.91.14a2,2,0,0,1-.9-.87,3.31,3.31,0,0,1-.32-.88Z" transform="translate(0 -49.15)"/><path class="cls-1" d="M158.61,88.45a1.75,1.75,0,0,1-.43-.73,4.78,4.78,0,0,1-.15-1.46v-1l.54,2.89A1.75,1.75,0,0,1,158.61,88.45Z" transform="translate(0 -49.15)"/><path class="cls-1" d="M159.78,82.12c0,2,0,4-.05,6a1.48,1.48,0,0,1,0,.21c0-.12-.05-.24-.07-.36l-1.5-7.6c0-.11,0-.22-.05-.33h0a.77.77,0,0,1,.46-.47h.08a.62.62,0,0,1,.47.12.75.75,0,0,1,.16.15,1.37,1.37,0,0,1,.2.29A4.41,4.41,0,0,1,159.78,82.12Z" transform="translate(0 -49.15)"/><path class="cls-1" d="M161.42,90.6a2.19,2.19,0,0,1-1-.72Z" transform="translate(0 -49.15)"/><path class="cls-1" d="M161.92,90.33a0,0,0,0,0,0,0,.42.42,0,0,1-.34.26,2.71,2.71,0,0,1-.73-1,4.8,4.8,0,0,1-.14-1.42c0-1.67,0-3.34,0-5,.42,2.16.84,4.33,1.25,6.49A1.31,1.31,0,0,1,161.92,90.33Z" transform="translate(0 -49.15)"/><path class="cls-1" d="M164.6,93.24a1.2,1.2,0,0,1-.55.85,10.06,10.06,0,0,1-3.33,1.76h0a10,10,0,0,1-2.67.45A7.64,7.64,0,0,1,153,94.49a13.45,13.45,0,0,1-1.14-1,15.83,15.83,0,0,1-1.64-1.92,18.21,18.21,0,0,1-1.4-2.27,27.23,27.23,0,0,1-2-4.93l15.07,6.57,2,1.38C164.23,92.53,164.61,92.83,164.6,93.24Z" transform="translate(0 -49.15)"/><path class="cls-1" d="M165,92.5a1.14,1.14,0,0,1-.25.06.84.84,0,0,1-.58-.24,1.85,1.85,0,0,1-.54-.64l.48.21A2,2,0,0,1,165,92.5Z" transform="translate(0 -49.15)"/><path class="cls-1" d="M162.41,82.92c0,1.28,0,2.57,0,3.85q-.58-3.19-1.19-6.39h0a4.91,4.91,0,0,1,.57.25.47.47,0,0,1,.1.1,1.32,1.32,0,0,1,.19.29A3.92,3.92,0,0,1,162.41,82.92Z" transform="translate(0 -49.15)"/><path class="cls-1" d="M166,90.13c-.06.37-.13.74-.21,1.1,0,.11-.06.23-.08.34s0,0,0,0a1.05,1.05,0,0,1-.57.4,1,1,0,0,1-.7-.13,2.56,2.56,0,0,1-1.13-1.19,9.07,9.07,0,0,1-.06-1.28c0-2.51,0-5,.06-7.54.14.09.28.18.41.28a7.87,7.87,0,0,1,1.45,2.36A14.18,14.18,0,0,1,166,90.13Z" transform="translate(0 -49.15)"/><path class="cls-1" d="M191,92a7.53,7.53,0,0,1-4.82,1.52,5,5,0,0,1-3.76-1.41A5.78,5.78,0,0,1,181.12,88V70.52H191V63.63h-9.85V55.22H172.5v33c0,4,1.1,7.12,3.31,9.24s5.33,3.17,9.37,3.17a16.67,16.67,0,0,0,4.58-.62,10.34,10.34,0,0,0,3.69-1.86Z" transform="translate(0 -49.15)"/><path class="cls-1" d="M212,93a6.8,6.8,0,0,1-3.1.69q-5.16,0-5.16-5.52v-39h-8.62V88.78q0,5.73,3.2,8.86t8.93,3.13a14.9,14.9,0,0,0,5.17-.89Z" transform="translate(0 -49.15)"/><path class="cls-1" d="M233,93.33a13.85,13.85,0,0,1-7-1.65,9.57,9.57,0,0,1-4.2-4.83L250,81.34a18.66,18.66,0,0,0-2.49-9.75,16.81,16.81,0,0,0-6.71-6.41,20.91,20.91,0,0,0-19.16.17,17.46,17.46,0,0,0-6.76,6.72,19.26,19.26,0,0,0-2.44,9.68A19,19,0,0,0,215,91.51a17.27,17.27,0,0,0,7.14,6.71,24.77,24.77,0,0,0,19.22.9,14.9,14.9,0,0,0,6.2-4.48L243,89.33A13.55,13.55,0,0,1,233,93.33Zm-12.2-12.06a11.67,11.67,0,0,1,2.92-8.34,10.08,10.08,0,0,1,7.69-3.1A10.55,10.55,0,0,1,238,71.9a9.78,9.78,0,0,1,3.62,5.44l-20.81,4Z" transform="translate(0 -49.15)"/><path class="cls-1" d="M148,80.94c-.56-.42-1.12-.81-1.68-1.21a1.31,1.31,0,0,1,1.18-.07C147.87,79.88,148,80.5,148,80.94Z" transform="translate(0 -49.15)"/><path class="cls-1" d="M148.49,84.22a.44.44,0,0,1-.57.31c-.78-.17-1.28-1-1.53-1.71a.14.14,0,0,1,0-.07,9.69,9.69,0,0,1-.38-1.3,7.62,7.62,0,0,1-.17-.88,1.14,1.14,0,0,1,0-.37A.47.47,0,0,1,146,80c.69.49,1.39,1,2.08,1.44.09.82.24,1.61.39,2.41A1,1,0,0,1,148.49,84.22Z" transform="translate(0 -49.15)"/><path class="cls-1" d="M149.14,80a7.13,7.13,0,0,1,0,.92c0,.09,0,.22,0,.34-.07-.39-.15-.77-.23-1.15a.94.94,0,0,1,0-.5.55.55,0,0,1,.25-.25C149.12,79.52,149.13,79.74,149.14,80Z" transform="translate(0 -49.15)"/><path class="cls-1" d="M151.47,83.23a.45.45,0,0,1-.34,0,2.26,2.26,0,0,1-1-1.74,8.8,8.8,0,0,1-.11-1.26,2.55,2.55,0,0,1,.08-1.1s0,0,0,0h.08a.72.72,0,0,1,.53.28,1.11,1.11,0,0,1,.15.43Z" transform="translate(0 -49.15)"/><path class="cls-1" d="M151.63,86c-.55.16-1.19-.35-1.48-.76l-.16-.26a6,6,0,0,1-.47-1.54l-.24-1.18,2.29,1.57c0,.15.05.29.08.44.06.37.13.74.19,1.11S152,85.87,151.63,86Z" transform="translate(0 -49.15)"/><path class="cls-1" d="M154.42,82.5c0,.36,0,.72,0,1.07s0,.66,0,1,0,.48-.29.51c-.5,0-1-.51-1.15-.91a2.67,2.67,0,0,1-.09-.26,5.08,5.08,0,0,1-.15-1.41c0-1,0-2,0-3a.78.78,0,0,1,.09-.43.6.6,0,0,1,.47-.22.81.81,0,0,1,.33.25,2.27,2.27,0,0,1,.39,1Z" transform="translate(0 -49.15)"/><path class="cls-1" d="M155.29,87.12c0,.16,0,.32-.16.38a1.05,1.05,0,0,1-.55-.07,2,2,0,0,1-1.21-.92,5.44,5.44,0,0,1-.59-1.88l2.36,1.63.12.62A.93.93,0,0,1,155.29,87.12Z" transform="translate(0 -49.15)"/><path class="cls-1" d="M157.11,80.51V81l0,5.44a1.62,1.62,0,0,1,0,.21c0,.14-.07.27-.21.3s-.35-.1-.46-.15l-.05,0h0c0-.13,0-.25-.08-.38l-.46-2.3c-.07-.38-.15-.75-.23-1.13s-.15-.75-.22-1.13h0a0,0,0,0,0,0,0s0,0,0,0h0s0,0,0,0v0a0,0,0,0,0,0,0h0c0-.5,0-1,0-1.51v-.19a1.56,1.56,0,0,1,.13-.68.78.78,0,0,1,.74-.38h0a3.19,3.19,0,0,1,.26.26A3.43,3.43,0,0,1,157.11,80.51Z" transform="translate(0 -49.15)"/><path class="cls-1" d="M158.59,88.64a.28.28,0,0,1,0,.09s0,0,0,0c-.16.38-.62.27-.91.14a2,2,0,0,1-.9-.87,3.31,3.31,0,0,1-.32-.88Z" transform="translate(0 -49.15)"/><path class="cls-1" d="M158.61,88.45a1.75,1.75,0,0,1-.43-.73,4.78,4.78,0,0,1-.15-1.46v-1l.54,2.89A1.75,1.75,0,0,1,158.61,88.45Z" transform="translate(0 -49.15)"/><path class="cls-1" d="M159.78,82.12c0,2,0,4-.05,6a1.48,1.48,0,0,1,0,.21c0-.12-.05-.24-.07-.36l-1.5-7.6c0-.11,0-.22-.05-.33h0a.77.77,0,0,1,.46-.47h.08a.62.62,0,0,1,.47.12.75.75,0,0,1,.16.15,1.37,1.37,0,0,1,.2.29A4.41,4.41,0,0,1,159.78,82.12Z" transform="translate(0 -49.15)"/><path class="cls-1" d="M161.42,90.6a2.19,2.19,0,0,1-1-.72Z" transform="translate(0 -49.15)"/><path class="cls-1" d="M161.92,90.33a0,0,0,0,0,0,0,.42.42,0,0,1-.34.26,2.71,2.71,0,0,1-.73-1,4.8,4.8,0,0,1-.14-1.42c0-1.67,0-3.34,0-5,.42,2.16.84,4.33,1.25,6.49A1.31,1.31,0,0,1,161.92,90.33Z" transform="translate(0 -49.15)"/><path class="cls-1" d="M162.41,82.92c0,1.28,0,2.57,0,3.85q-.58-3.19-1.19-6.39h0a4.91,4.91,0,0,1,.57.25.47.47,0,0,1,.1.1,1.32,1.32,0,0,1,.19.29A3.92,3.92,0,0,1,162.41,82.92Z" transform="translate(0 -49.15)"/><path class="cls-1" d="M166,90.13c-.06.37-.13.74-.21,1.1,0,.11-.06.23-.08.34s0,0,0,0a1.05,1.05,0,0,1-.57.4,1,1,0,0,1-.7-.13,2.56,2.56,0,0,1-1.13-1.19,9.07,9.07,0,0,1-.06-1.28c0-2.51,0-5,.06-7.54.14.09.28.18.41.28a7.87,7.87,0,0,1,1.45,2.36A14.18,14.18,0,0,1,166,90.13Z" transform="translate(0 -49.15)"/><path class="cls-1" d="M145.61,79.68l.21.89a1.14,1.14,0,0,1,0-.37A.47.47,0,0,1,146,80Zm6-.75a1.32,1.32,0,0,0-1.29-.05.43.43,0,0,0-.24.21h.07a.72.72,0,0,1,.53.28,1.11,1.11,0,0,1,.15.43l.63,3.43a.32.32,0,0,0,.21-.2.9.9,0,0,0,.06-.37c0-.78,0-1.55.08-2.34C151.86,79.94,151.92,79.23,151.62,78.93Zm9.61,1.45a4.91,4.91,0,0,1,.57.25A.82.82,0,0,0,161.23,80.38Zm-6.83-1.16a.63.63,0,0,0-.41-.34,2,2,0,0,0-.55,0h-.19a.81.81,0,0,1,.33.25,2.27,2.27,0,0,1,.39,1l.45,2.36c0-.88,0-1.78,0-2.67v-.22a.86.86,0,0,0,0-.16A.64.64,0,0,0,154.4,79.22Zm.95,2.65h0Zm.92,4.56-.46-2.3c-.07-.38-.15-.75-.23-1.13s-.15-.73-.23-1.1l0,2.2a4.83,4.83,0,0,0,.19,1.74,1.71,1.71,0,0,0,.84,1C156.32,86.68,156.3,86.56,156.27,86.43ZM159.65,88l-1.5-7.6c0-.11,0-.22-.05-.33a.09.09,0,0,0,0,0,2.32,2.32,0,0,0-.06.64v4.52l.54,2.89a1.75,1.75,0,0,1,0,.32,1.68,1.68,0,0,0,.21.18c.23.16.6.33.8,0l0,0a.79.79,0,0,0,.08-.31C159.7,88.2,159.67,88.08,159.65,88Zm5.49,4a1,1,0,0,1-.7-.13,2.56,2.56,0,0,1-1.13-1.19c0,.13,0,.25.07.37a2.53,2.53,0,0,0,.26.64l.48.21a2,2,0,0,1,.89.61.75.75,0,0,0,.32-.21,1.65,1.65,0,0,0,.38-.7A1.05,1.05,0,0,1,165.14,92ZM161.2,80.38a.76.76,0,0,0-.2.06l-.1.07a1.15,1.15,0,0,0-.22.82v1.8c.42,2.16.84,4.33,1.25,6.49a1.31,1.31,0,0,1,0,.71,0,0,0,0,0,0,0,.42.42,0,0,1-.34.26c.24.17.49.23.68,0h0a1.05,1.05,0,0,0,.13-.61c0-1.07,0-2.13,0-3.2Q161.81,83.58,161.2,80.38Zm.22,10.22a2.19,2.19,0,0,1-1-.72l-1.79-1.24a.28.28,0,0,1,0,.09s0,0,0,0c-.16.38-.62.27-.91.14a2,2,0,0,1-.9-.87,3.31,3.31,0,0,1-.32-.88l-1.3-.89.12.62a.93.93,0,0,1,0,.24c0,.16,0,.32-.16.38a1.05,1.05,0,0,1-.55-.07,2,2,0,0,1-1.21-.92,5.44,5.44,0,0,1-.59-1.88l-1.21-.84c0,.15.05.29.08.44.06.37.13.74.19,1.11s.11.53-.21.62c-.55.16-1.19-.35-1.48-.76l-.16-.26a6,6,0,0,1-.47-1.54l-.24-1.18-1.19-.83c.09.82.24,1.61.39,2.41a1,1,0,0,1,0,.42.44.44,0,0,1-.57.31c-.78-.17-1.28-1-1.53-1.71.13.52.28,1,.43,1.53l15.07,6.57Zm-4.48-11.13a.86.86,0,0,0-.66-.46,3.19,3.19,0,0,1,.26.26,3.43,3.43,0,0,1,.57,1.24v-.07A2,2,0,0,0,156.94,79.47Zm-7.84-.16v0c0-.17,0-.38-.22-.38a2.73,2.73,0,0,0-.4,0c-.2,0-2.56.27-2.57.23s0,.23,0,.26l.4.28a1.31,1.31,0,0,1,1.18-.07c.34.22.45.84.5,1.28l.66.47c.28.21.36,0,.39-.2-.07-.39-.15-.77-.23-1.15a.94.94,0,0,1,0-.5A.55.55,0,0,1,149.1,79.31Zm17,6.77a6.72,6.72,0,0,0-1.73-3.44,5.78,5.78,0,0,0-.6-.51,7.87,7.87,0,0,1,1.45,2.36,14.18,14.18,0,0,1,.84,5.64A11.26,11.26,0,0,0,166.05,86.08Z" transform="translate(0 -49.15)"/><path class="cls-2" d="M164.6,93.24a1.2,1.2,0,0,1-.55.85,10.06,10.06,0,0,1-3.33,1.76h0a10,10,0,0,1-2.67.45A7.64,7.64,0,0,1,153,94.49a13.45,13.45,0,0,1-1.14-1,15.83,15.83,0,0,1-1.64-1.92,18.21,18.21,0,0,1-1.4-2.27,27.23,27.23,0,0,1-2-4.93c-.15-.5-.3-1-.43-1.53a.14.14,0,0,1,0-.07c-.2-.72-.38-1.45-.55-2.18l-.21-.89.4.27c.69.49,1.39,1,2.08,1.44l1.19.83,2.29,1.57,1.21.84,2.36,1.63,1.3.89,2.15,1.49,1.79,1.24,1,.72.47.32,2,1.38C164.23,92.53,164.61,92.83,164.6,93.24Z" transform="translate(0 -49.15)"/><path class="cls-2" d="M151.82,80.32c-.07.79-.07,1.56-.08,2.34a.9.9,0,0,1-.06.37.32.32,0,0,1-.21.2.45.45,0,0,1-.34,0,2.26,2.26,0,0,1-1-1.74,8.8,8.8,0,0,1-.11-1.26,2.55,2.55,0,0,1,.08-1.1s0,0,0,0h0a.43.43,0,0,1,.24-.21,1.32,1.32,0,0,1,1.29.05C151.92,79.23,151.86,79.94,151.82,80.32Z" transform="translate(0 -49.15)"/><path class="cls-2" d="M166,90.13c-.06.37-.13.74-.21,1.1,0,.11-.06.23-.08.34s0,0,0,0a1.65,1.65,0,0,1-.38.7.75.75,0,0,1-.32.21,1.14,1.14,0,0,1-.25.06.84.84,0,0,1-.58-.24,1.85,1.85,0,0,1-.54-.64,2.53,2.53,0,0,1-.26-.64c0-.12,0-.24-.07-.37a9.07,9.07,0,0,1-.06-1.28c0-2.51,0-5,.06-7.54.14.09.28.18.41.28a5.78,5.78,0,0,1,.6.51,6.72,6.72,0,0,1,1.73,3.44A11.26,11.26,0,0,1,166,90.13Z" transform="translate(0 -49.15)"/><path class="cls-2" d="M162.41,82.92c0,1.28,0,2.57,0,3.85,0,1.07,0,2.13,0,3.2a1.05,1.05,0,0,1-.13.61h0c-.19.25-.44.19-.68,0a2.71,2.71,0,0,1-.73-1,4.8,4.8,0,0,1-.14-1.42c0-1.67,0-3.34,0-5v-1.8a1.15,1.15,0,0,1,.22-.82l.1-.07a.76.76,0,0,1,.2-.06h0a.82.82,0,0,1,.57.25.47.47,0,0,1,.1.1,1.32,1.32,0,0,1,.19.29A3.92,3.92,0,0,1,162.41,82.92Z" transform="translate(0 -49.15)"/><path class="cls-2" d="M159.78,82.12c0,2,0,4-.05,6a1.48,1.48,0,0,1,0,.21.79.79,0,0,1-.08.31l0,0c-.2.3-.57.13-.8,0a1.68,1.68,0,0,1-.21-.18,1.75,1.75,0,0,1-.43-.73,4.78,4.78,0,0,1-.15-1.46V80.72a2.32,2.32,0,0,1,.06-.64.09.09,0,0,1,0,0h0a.77.77,0,0,1,.46-.47h.08a.62.62,0,0,1,.47.12.75.75,0,0,1,.16.15,1.37,1.37,0,0,1,.2.29A4.41,4.41,0,0,1,159.78,82.12Z" transform="translate(0 -49.15)"/><path class="cls-2" d="M157.11,80.44V81l0,5.44a1.62,1.62,0,0,1,0,.21c0,.14-.07.27-.21.3s-.35-.1-.46-.15l-.05,0h0a1.71,1.71,0,0,1-.84-1,4.83,4.83,0,0,1-.19-1.74l0-2.2a0,0,0,0,0,0,0h0a0,0,0,0,0,0,0s0,0,0,0h0s0,0,0,0v0a0,0,0,0,0,0,0h0c0-.5,0-1,0-1.51v-.19a1.56,1.56,0,0,1,.13-.68.78.78,0,0,1,.74-.38h0a.86.86,0,0,1,.66.46A2,2,0,0,1,157.11,80.44Z" transform="translate(0 -49.15)"/><path class="cls-2" d="M154.45,79.45a.86.86,0,0,1,0,.16v.22c0,.89,0,1.79,0,2.67,0,.36,0,.72,0,1.07s0,.66,0,1,0,.48-.29.51c-.5,0-1-.51-1.15-.91a2.67,2.67,0,0,1-.09-.26,5.08,5.08,0,0,1-.15-1.41c0-1,0-2,0-3a.78.78,0,0,1,.09-.43.6.6,0,0,1,.47-.22h.19a2,2,0,0,1,.55,0,.59.59,0,0,1,.46.57Z" transform="translate(0 -49.15)"/><path class="cls-2" d="M149.14,80a7.13,7.13,0,0,1,0,.92c0,.09,0,.22,0,.34s-.11.41-.39.2l-.66-.47c-.56-.42-1.12-.81-1.68-1.21l-.4-.28s0-.17,0-.26,2.37-.21,2.57-.23a2.73,2.73,0,0,1,.4,0c.23,0,.21.21.22.38v0C149.12,79.52,149.13,79.74,149.14,80Z" transform="translate(0 -49.15)"/><path class="cls-1" d="M36.24,66.31l.06,0a11.77,11.77,0,0,1,2.33-1.68,13.19,13.19,0,0,1,4.58-1.49A16.82,16.82,0,0,1,45.07,63a11.38,11.38,0,0,1,5.16,1.14,12.24,12.24,0,0,1,3.87,3,13,13,0,0,1,2.42,4.15,14,14,0,0,1,.84,4.76,14.74,14.74,0,0,1-.87,5A18.67,18.67,0,0,1,54,85.69a24.52,24.52,0,0,1-3.88,4.19A30.56,30.56,0,0,1,45,93.42l-4-7A19.89,19.89,0,0,0,44.49,84,16.29,16.29,0,0,0,47,81.44a10.64,10.64,0,0,0,1.49-2.69A7.6,7.6,0,0,0,49,76.18a7.08,7.08,0,0,0-.23-1.75A5,5,0,0,0,48,72.72a4.45,4.45,0,0,0-1.39-1.3,4.06,4.06,0,0,0-2.12-.52,5.37,5.37,0,0,0-2.5.64,9.44,9.44,0,0,0-2.28,1.68,14.4,14.4,0,0,0-2,2.39,18.3,18.3,0,0,0-1.48,2.8v21.74H27.79V88.51l-.06,0a10.69,10.69,0,0,1-3.48,1.72,14.24,14.24,0,0,1-3.87.55,13.44,13.44,0,0,1-4.61-.86,11.53,11.53,0,0,1-4.25-2.77,14.33,14.33,0,0,1-3.12-5,20,20,0,0,1-1.22-7.44V59.19H0V51.91H64.06v7.28H36.24Zm-8.45-7.12H15.72V74.53A20.1,20.1,0,0,0,16,77.86a8.58,8.58,0,0,0,.86,2.62,4.41,4.41,0,0,0,1.62,1.72,4.83,4.83,0,0,0,2.54.61,6.31,6.31,0,0,0,3.78-1.26,10.42,10.42,0,0,0,3-3.59Z" transform="translate(0 -49.15)"/></svg>